<svg width="163" height="198" viewBox="0 0 163 198" fill="none" xmlns="http://www.w3.org/2000/svg">
<path d="M21.0027 148.329C20.9005 141.003 23.6865 135.199 30.0212 131.217C30.6411 130.83 31.5947 130.048 31.5129 129.627C30.355 123.857 35.2661 121.478 38.1065 118.162C56.0481 97.1965 77.0822 79.3436 96.897 60.2471C102.666 54.688 107.625 48.2862 113.027 42.3398C114.089 41.1709 115.37 39.703 116.759 39.4243C123.04 38.1603 129.381 37.2224 135.723 36.2846C139.401 35.7409 141.206 37.6302 140.981 41.1981C140.77 44.5756 140.232 47.926 139.796 51.2832C139.585 52.9007 139.558 54.6132 138.972 56.0879C137.119 60.7839 140.15 66.5944 135.58 70.6244C131.84 73.9205 128.08 77.1825 124.375 80.5193C106.855 96.2859 89.2476 111.964 71.9054 127.914C65.7001 133.616 60.1759 140.052 54.2635 146.08C50.1016 150.32 45.967 154.595 41.5395 158.557C36.1993 163.335 34.3057 163.267 28.3524 159.155C22.2356 154.921 21.2002 153.385 21.0027 148.329ZM63.9359 123.544C65.0257 124.53 66.1156 125.515 67.5392 126.806C67.8593 126.038 68.4383 124.652 69.0037 123.266C69.6167 121.764 70.2161 120.255 70.8224 118.753C71.6874 119.508 72.5525 120.269 74.1055 121.628C74.882 119.358 75.7675 117.469 76.1558 115.484C76.7075 112.644 77.7838 112.141 80.2087 114.547C80.6719 112.188 81.0669 110.197 81.4552 108.206C77.2797 111.087 73.9216 114.363 70.6112 117.686C70.4682 117.829 70.7611 118.413 70.8156 118.76C68.5541 120.384 66.2927 122.002 64.0313 123.626C62.3692 124.774 60.7072 125.923 58.4662 127.466C60.6732 128.369 61.9333 128.893 63.173 129.402C63.4591 127.241 63.7043 125.393 63.9427 123.551L63.9359 123.544ZM122.835 56.8083C118.803 61.7693 115.166 66.2547 111.494 70.7128C111.099 71.1953 110.52 71.5691 109.962 71.8613C107.952 72.9215 105.595 73.5671 103.94 75.0146C96.2839 81.7018 88.7027 88.4909 81.3121 95.4636C72.0076 104.237 62.9142 113.228 53.7254 122.131C55.2375 125.209 56.9268 123.626 58.5003 122.26C67.3144 114.594 76.1217 106.915 84.9018 99.2081C89.5133 95.1645 94.0838 91.0802 98.6407 86.9822C107.932 78.6232 117.202 70.2371 126.568 61.7829C125.335 60.1383 124.456 58.9694 122.835 56.8015V56.8083ZM32.6368 137.259C30.7705 140.031 29.7964 144.537 31.0021 149.416C32.1532 154.065 36.533 155.934 40.5314 153.331C42.7656 151.877 44.6115 149.845 47.3566 147.446C42.2547 143.912 37.548 140.65 32.6368 137.252V137.259ZM132.978 59.5063C134.292 53.8725 135.518 48.5988 136.997 42.2582C130.641 43.1757 125.628 43.896 119.811 44.7319C124.361 49.8493 126.493 56.1287 132.978 59.5063ZM116.596 50.8007C117.107 51.0318 117.618 51.2628 118.135 51.4939C118.217 53.1249 118.306 54.7559 118.401 56.6724C121.146 53.8045 119.968 50.7599 115.792 48.0823C112.434 51.5143 109.124 54.8987 105.82 58.283C109.383 62.4761 104.185 65.5003 104.301 69.5983C110.438 65.7246 107.83 58.5413 111.283 53.689C112.189 53.92 113.177 54.1783 114.423 54.4977C115.104 53.3356 115.854 52.0647 116.603 50.8007H116.596ZM50.4627 142.335C46.1169 136.994 41.8665 131.767 37.3504 126.215C36.2946 131.931 45.9602 143.089 50.4627 142.335ZM54.3248 116.755C57.6488 113.364 55.5986 109.619 56.6475 106.419C56.1503 106.079 55.6462 105.732 55.149 105.392C52.4516 109.008 49.7542 112.623 47.0569 116.246C47.1659 116.415 47.2817 116.592 47.3906 116.762C49.2774 115.45 51.1642 114.139 53.4802 112.535C53.7526 113.901 53.9638 114.975 54.318 116.762L54.3248 116.755ZM126.766 66.1731C124.497 69.7546 118.496 71.372 121.126 77.6514C125.621 75.1165 127.011 71.073 126.766 66.1731ZM78.2742 92.752C83.812 89.8501 80.9443 84.3862 82.5314 80.3358C80.8149 82.028 79.1052 83.7134 77.3887 85.4056C77.7088 85.4396 78.029 85.4735 78.3423 85.5007C78.3219 87.7774 78.2946 90.0608 78.2674 92.752H78.2742ZM110.152 82.9115C104.008 86.4929 103.416 87.5463 104.662 92.6025C109.001 90.8083 110.288 87.356 110.152 82.9115ZM66.5379 104.19C71.6193 101.206 69.2489 96.0548 70.618 92.0384C69.1672 93.4316 67.7231 94.8247 66.2723 96.2179C66.5652 96.2995 66.858 96.381 67.1509 96.4694C66.9534 98.9499 66.7559 101.424 66.5311 104.19H66.5379ZM96.8425 68.6196C96.5632 68.4633 96.2839 68.3138 96.0047 68.1575C95.4461 68.4769 94.8535 68.7488 94.329 69.1225C90.1127 72.1331 93.4367 77.3864 90.1127 80.6688C90.7121 80.8795 91.3115 81.097 91.9109 81.3076C93.5525 77.0806 95.1941 72.8535 96.8425 68.6196ZM55.8778 134.724C55.5509 135.043 55.2307 135.362 54.9038 135.682C52.5674 134.173 50.2311 132.664 47.8947 131.163C47.6086 131.475 47.3293 131.788 47.0433 132.107C49.0595 134.044 50.8305 136.457 53.2213 137.66C54.0728 138.088 56.4091 135.587 58.8817 133.854C57.424 132.76 56.6203 132.148 55.1558 131.047C55.5032 132.821 55.6939 133.772 55.8846 134.724H55.8778ZM90.6167 105.44C94.9284 103.659 95.1668 99.9693 95.16 95.9529C90.3306 97.6654 90.0718 101.322 90.6167 105.44ZM59.1746 111.366C65.2028 108.389 63.0368 102.939 64.5762 98.8479C64.1334 98.6916 63.6907 98.5353 63.2547 98.379C61.9469 102.545 60.6323 106.718 59.1746 111.366ZM118.224 77.4475C117.842 77.2437 117.454 77.0466 117.073 76.8427C113.824 78.7592 111.188 80.9882 113.326 86.656C115.234 83.0678 116.725 80.2611 118.217 77.4475H118.224ZM98.3546 75.7893C100.562 70.1759 102.387 65.5343 104.213 60.8927C102.278 61.9189 100.316 63.1761 99.8259 64.8683C98.9268 67.9468 98.8996 71.2836 98.3546 75.7893ZM87.7763 103.381C87.2382 103.191 86.7001 103 86.162 102.817C85.2424 105.413 84.316 108.002 83.3965 110.598C84.0504 110.822 84.7111 111.04 85.365 111.264C86.1688 108.641 86.9725 106.011 87.7763 103.388V103.381Z" fill="#FED430"/>
</svg>
