<svg width="163" height="198" viewBox="0 0 163 198" fill="none" xmlns="http://www.w3.org/2000/svg">
<path d="M81.9402 138.939C78.6714 137.48 76.2911 136.249 73.7834 135.378C72.6347 134.976 71.0067 134.82 70.0024 135.343C65.1331 137.86 60.4348 140.71 55.5941 143.279C54.4688 143.879 53.0045 143.844 51.6909 144.105C51.5707 142.661 50.9368 141.021 51.4131 139.809C53.1296 135.426 55.2315 131.191 57.1608 126.888C57.5416 126.032 57.7972 125.116 57.8577 124.948C55.7329 122.628 53.9527 120.685 51.8263 118.371C47.1183 119.542 43.1549 122.986 39.2038 126.365C35.3271 129.679 35.1962 129.617 33.3263 124.909C29.7856 115.988 31.2756 108.387 38.7085 102.101C41.5197 99.7196 44.1918 97.1747 47.0653 94.879C48.2395 93.9345 49.7614 92.879 51.1455 92.8477C54.9853 92.7636 56.3797 90.4845 57.539 87.359C62.2463 74.6545 71.8673 66.4765 82.8205 59.1429C94.2456 51.4803 107.196 48.8851 120.135 45.8782C122.351 45.3613 123.628 46.0537 124.82 47.9958C127.734 52.7551 129.506 57.763 129.681 63.3967C129.814 67.7448 130.766 72.0858 130.68 76.4206C130.293 96.271 121.527 111.842 105.765 123.608C103.914 124.99 103.566 126.078 104.262 128.28C109.508 144.873 101.119 154.831 87.9802 163.136C86.0216 164.376 82.483 163.297 79.7326 162.907C79.3874 162.858 78.7741 160.061 79.3168 159.158C83.1871 152.701 84.1617 145.127 81.9402 138.939ZM77.2612 132.593C78.5438 132.527 80.2725 132.916 81.4551 132.289C88.2774 128.66 95.3501 125.326 101.628 120.892C113.44 112.549 122.225 101.832 124.848 86.9919C125.265 84.6437 125.064 83.5475 122.764 82.2967C116.802 79.0538 111.028 75.4565 105.324 71.7677C100.512 68.6616 95.9832 65.1294 91.17 62.0291C90.1709 61.385 88.1036 61.2705 87.1501 61.8762C82.4421 64.8907 77.4723 67.7376 73.465 71.5521C61.1846 83.2495 56.2264 98.0899 56.6469 114.788C56.6945 116.725 58.5572 118.618 59.8739 121.078C65.9781 112.915 72.8706 107.285 80.4809 102.546C81.8221 101.71 83.774 101.86 85.4402 101.557C85.7102 103.192 86.6035 105.03 86.1527 106.435C83.4712 114.889 80.4764 123.247 77.2628 132.588L77.2612 132.593ZM120.991 51.1627C120.897 50.8637 120.81 50.5606 120.716 50.2616C111.3 51.4983 102.451 54.783 93.6134 58.4851C94.8669 59.1277 96.135 59.3724 97.2016 59.0217C100.355 57.9808 103.392 56.5853 106.549 55.5517C111.332 53.9871 116.179 52.6137 120.997 51.1643L120.991 51.1627ZM50.0879 109.885C51.5136 112.895 51.5144 112.914 49.064 113.729C45.5674 114.888 42.0512 115.986 38.567 117.167C37.4767 117.536 36.4569 118.092 35.3994 118.563C35.5681 118.97 35.7295 119.381 35.8982 119.787C41.0632 117.992 46.2667 116.3 51.3408 114.28C52.0262 114.006 52.1144 112.071 52.2693 110.879C52.2913 110.693 51.1647 110.365 50.0879 109.885ZM126.394 70.8676C126.104 70.6486 125.819 70.4312 125.527 70.2179C122.767 71.5073 120.002 72.795 117.093 74.153C120.008 77.8054 122.49 75.0579 124.811 74.0019C125.645 73.6216 125.88 71.9513 126.394 70.8676ZM125.383 66.7079C125.184 66.2798 124.99 65.8534 124.788 65.431C120.503 67.2245 116.226 69.0139 111.941 70.8075L112.4 71.9096C117.354 71.7418 121.048 68.4189 125.383 66.7079ZM69.4164 131.453C64.4853 129.741 58.545 131.952 58.1162 135.101C62.0136 133.84 65.7121 132.646 69.4164 131.453ZM107.614 67.308C107.777 67.8431 107.934 68.3765 108.099 68.9059C113.55 67.4518 118.358 64.3483 123.388 61.8094C118.132 63.6409 112.871 65.4707 107.615 67.3022L107.614 67.308ZM86.37 137.614C86.5166 137.903 86.6574 138.19 86.804 138.48C91.5666 136.748 96.3275 135.023 101.09 133.292C100.919 132.872 100.744 132.444 100.572 132.024C95.8402 133.888 91.108 135.752 86.37 137.614ZM87.3298 149.649C89.2828 148.754 91.1786 147.886 93.0817 147.013C93.0031 146.855 92.9171 146.7 92.8385 146.542C91.2345 146.801 89.6362 147.062 88.0321 147.321C88.3947 146.051 88.9466 145.486 89.5648 145.013C90.1757 144.544 90.8602 144.165 92.2259 143.287C86.4708 144.611 86.2689 144.906 87.3298 149.649ZM108.692 59.3052C108.602 59.0135 108.51 58.7276 108.426 58.4376C105.161 59.4343 101.893 60.4237 98.6286 61.4205C98.7474 61.8069 98.8703 62.2007 98.9891 62.5871C102.66 62.8999 105.469 60.4375 108.692 59.3052ZM35.2622 114.121C35.4326 114.609 35.6014 115.102 35.7718 115.59C39.3942 114.293 43.011 112.995 46.6334 111.699C46.5384 111.424 46.4434 111.15 46.3426 110.874C42.6505 111.959 38.9543 113.036 35.2622 114.121ZM97.1309 150.099C97.0415 149.697 96.9579 149.295 96.8701 148.887C93.4815 149.842 90.0887 150.79 86.7001 151.745C86.8205 152.125 86.9409 152.506 87.0597 152.893C90.4173 151.96 93.7733 151.032 97.1309 150.099Z" fill="#00FF88"/>
<path d="M89.2105 93.5187C88.4216 92.9842 87.5862 92.5044 86.8603 91.9012C82.2168 88.0332 82.0966 83.0766 86.2468 78.7403C89.4961 75.3461 93.3719 73.6831 97.9889 73.6541C103.42 73.6164 105.75 77.8624 107.979 81.6404C110.005 85.0638 108.603 90.0368 105.705 92.7646C101.223 96.9815 94.0592 97.3403 89.2088 93.5244L89.2105 93.5187ZM94.6567 87.8768C97.5485 89.8099 101.182 89.3205 102.291 86.632C103.832 82.8859 99.6637 82.4496 97.923 80.9752C97.1791 80.3484 93.8617 81.5526 92.7359 82.8264C90.4663 85.3935 93.5378 86.5678 94.6607 87.8842L94.6567 87.8768ZM95.6992 77.0503C90.7473 77.9483 86.3204 82.0386 86.6417 84.9687C87.0066 88.2885 92.1549 92.4924 95.7436 92.3984C86.6701 84.4574 86.6403 83.7811 95.7009 77.0445L95.6992 77.0503Z" fill="#00FF88"/>
</svg>
