<svg width="163" height="198" viewBox="0 0 163 198" fill="none" xmlns="http://www.w3.org/2000/svg">
<path d="M45.5173 141.919C45.862 142.075 46.0097 142.142 46.1753 142.213C44.2191 134.321 43.5028 126.286 42.8582 118.242C42.7955 117.475 42.7194 117.011 41.7659 116.659C37.4863 115.08 33.2693 113.328 29.0389 111.611C28.2108 111.277 27.4542 110.764 26.6261 110.434C25.6099 110.033 24.5176 109.814 23.5283 109.369C22.4405 108.878 21.3974 108.267 20.3991 107.616C18.9263 106.658 17.5207 105.605 16.0658 104.62C15.4032 104.174 14.7273 103.625 15.1123 102.818C15.5062 101.989 15.6987 100.901 17.0775 100.807C18.3354 100.718 19.5665 100.29 20.8065 100.005C34.3034 96.8791 47.29 92.1972 60.1244 87.0962C64.7756 85.2458 69.1447 82.6774 73.6213 80.3989C77.4309 78.4638 81.2449 76.5286 84.9963 74.4819C86.3617 73.7373 87.548 72.6761 88.9805 71.6416C88.318 71.3607 87.6151 71.1288 86.9839 70.7677C86.5184 70.5001 86.205 69.9784 85.7395 69.7153C81.715 67.468 77.6771 65.2564 73.6392 63.0314C73.4736 62.9422 73.299 62.8664 73.1513 62.755C72.7797 62.4651 72.4216 62.1619 72.059 61.8632C72.4395 61.609 72.7932 61.1988 73.205 61.1275C77.4936 60.4185 81.7777 59.6828 86.0841 59.1076C94.4778 57.9839 102.871 56.8112 111.292 55.9328C118.043 55.2283 124.605 53.7301 131.172 52.1516C135.765 51.0458 140.412 50.1541 145.045 49.2355C145.623 49.1196 146.491 49.2355 146.849 49.6056C147.122 49.8865 146.988 50.8318 146.733 51.3223C144.302 55.9507 141.939 60.6236 139.293 65.1316C136.741 69.479 133.831 73.6169 131.154 77.893C127.918 83.0564 124.82 88.3046 121.557 93.4502C118.656 98.0295 115.607 102.515 112.626 107.045C111.762 108.356 110.889 109.658 110.061 110.992C109.904 111.246 110.012 111.656 109.868 111.932C109.667 112.316 109.376 112.878 109.067 112.918C108.74 112.962 108.122 112.548 108.015 112.213C107.308 110.011 106.668 107.786 106.072 105.552C105.275 102.56 104.546 99.55 103.708 96.2549C102.589 97.2135 101.573 97.918 100.754 98.8054C95.9416 104.031 90.4309 108.495 85.068 113.118C78.8365 118.491 72.444 123.682 66.2439 129.086C63.4818 131.494 60.9391 134.165 58.4233 136.836C55.6299 139.801 52.9663 142.886 50.2759 145.95C49.8372 146.449 49.5775 147.095 49.1881 147.639C49.0135 147.88 48.7136 148.192 48.4763 148.192C48.2211 148.192 47.8317 147.911 47.7287 147.662C46.9767 145.811 46.2873 143.939 45.5173 141.919ZM53.7408 92.1482C52.7828 92.5049 52.0352 92.8349 51.2518 93.0578C50.549 93.2585 50.343 93.6687 50.3296 94.3598C50.3072 95.6663 50.1595 96.9727 50.1371 98.2792C50.07 102.047 50.0028 105.81 50.0118 109.578C50.0163 112.267 50.2132 114.951 50.2087 117.64C50.2043 123.771 50.1058 129.902 50.0968 136.033C50.0968 137.932 50.2625 139.832 50.3565 141.794C51.4577 140.519 52.5008 139.35 53.4856 138.133C53.6871 137.883 53.7453 137.455 53.7453 137.108C53.7542 134.905 53.696 132.698 53.7184 130.495C53.8214 119.994 53.9646 109.489 54.0362 98.9882C54.0541 96.7632 53.8437 94.5382 53.7318 92.1526L53.7408 92.1482ZM58.6068 90.4003C57.4966 90.806 56.561 91.1895 55.5986 91.4838C55.0256 91.6577 54.8734 91.9386 54.8957 92.5272C55.0166 95.3631 55.1509 98.1989 55.1599 101.035C55.1822 111.157 55.1509 121.283 55.142 131.405C55.142 132.974 55.1285 134.544 55.124 136.452C56.1268 135.44 56.9192 134.749 57.5683 133.942C57.9532 133.46 58.3203 132.809 58.3472 132.221C58.4904 129.086 58.5442 125.947 58.5934 122.812C58.6695 117.881 58.7456 112.954 58.7725 108.022C58.7859 104.923 58.6964 101.824 58.665 98.7251C58.6382 96.0052 58.6292 93.2897 58.6158 90.4003H58.6068ZM91.5008 60.2981C91.662 74.8387 90.6503 89.3123 92.1678 104.054C93.4705 102.872 94.5315 101.94 95.5521 100.959C95.7222 100.794 95.7715 100.424 95.7581 100.156C95.3507 92.7323 94.8538 85.3171 94.5359 77.8885C94.339 73.3003 94.4151 68.6987 94.3524 64.106C94.3345 62.7728 94.2674 61.4396 94.2181 60.0083C93.2556 60.1108 92.4499 60.1955 91.5008 60.2981ZM109.447 109.208C110.307 107.906 110.79 106.778 110.589 105.422C110.477 104.687 110.459 103.929 110.486 103.184C110.665 97.9537 110.898 92.7234 111.046 87.4931C111.278 79.1995 111.471 70.9059 111.654 62.6167C111.69 61.0338 111.596 59.4464 111.56 57.7833C110.67 57.9081 109.904 58.0151 109.152 58.1221C109.058 60.3472 108.937 62.4651 108.888 64.5876C108.807 68.1369 108.794 71.6907 108.709 75.24C108.516 83.1635 108.275 91.0825 108.104 99.006C108.069 100.571 108.373 102.145 108.306 103.706C108.225 105.601 108.834 107.286 109.452 109.208H109.447ZM68.9746 123.227C70.0311 122.326 71.0115 121.528 71.9381 120.676C72.1082 120.52 72.1485 120.146 72.1396 119.878C71.956 114.88 71.5845 109.877 71.5979 104.878C71.6203 97.9047 71.9336 90.9309 72.1217 83.7922C70.7071 84.5546 69.3372 85.2859 67.9763 86.0395C67.8331 86.1197 67.6719 86.3115 67.6674 86.4586C67.6048 88.2689 67.5287 90.0792 67.5466 91.8896C67.5555 92.7412 67.8107 93.584 67.8465 94.4356C67.9405 96.7855 67.9271 99.1398 68.039 101.485C68.227 105.405 68.5135 109.315 68.6881 113.234C68.8358 116.503 68.8806 119.78 68.9746 123.222V123.227ZM81.5583 78.7179C81.0569 78.981 80.7078 79.1995 80.3317 79.3511C79.4185 79.7212 78.9127 80.2518 78.9171 81.3531C78.9216 82.6507 78.662 83.9438 78.5411 85.2413C78.2009 88.9556 77.6458 92.6699 77.5921 96.3931C77.507 102.404 77.7532 108.414 77.8651 114.429C77.8696 114.755 77.9323 115.076 77.986 115.531C79.6781 114.238 81.2181 113.324 81.133 110.72C80.9674 105.65 81.3972 100.567 81.5091 95.4835C81.6031 91.301 81.5986 87.1185 81.621 82.9405C81.6299 81.5761 81.5807 80.2116 81.5583 78.7224V78.7179ZM124.86 55.7455C123.486 56.0443 122.121 56.022 121.234 56.6552C120.684 57.0476 120.854 58.4387 120.706 59.384C120.67 59.607 120.639 59.8299 120.639 60.0529C120.572 64.4939 120.473 68.935 120.451 73.3761C120.433 76.6624 120.554 79.9486 120.518 83.2348C120.496 85.6649 120.321 88.0906 120.227 90.5162C120.214 90.8105 120.281 91.1093 120.33 91.6265C121.476 89.8429 122.501 88.2823 123.477 86.6994C123.661 86.4051 123.728 85.9993 123.737 85.6471C123.777 83.5558 123.746 81.4646 123.817 79.3734C124.005 73.9602 124.22 68.5426 124.449 63.1295C124.551 60.744 124.713 58.3629 124.865 55.7411L124.86 55.7455ZM48.727 143.408C48.7986 126.923 48.1495 110.492 49.0404 93.9139C48.2525 94.1904 47.7019 94.4312 47.1289 94.5828C46.3768 94.7789 46.1306 95.265 46.1127 95.9829C46.0231 99.4519 45.8888 102.916 45.8262 106.381C45.7366 111.424 45.3919 116.485 45.7053 121.506C46.0589 127.16 46.9901 132.782 47.7377 138.41C47.9615 140.091 48.3913 141.74 48.727 143.408ZM87.6823 107.701C88.6358 106.934 89.5043 106.345 90.2295 105.61C90.5876 105.244 90.8741 104.606 90.8472 104.111C90.7443 102.288 90.3503 100.473 90.319 98.6493C90.2071 91.9609 90.1981 85.2725 90.1489 78.5841C90.1355 76.7738 90.131 74.968 90.1176 72.957C88.4344 74.1877 86.6258 74.9813 86.5631 77.1484C86.4288 81.9997 86.2005 86.8554 86.299 91.7068C86.3796 95.7688 86.8586 99.8265 87.1899 103.884C87.2883 105.097 87.4943 106.301 87.6778 107.701H87.6823ZM77.4712 80.9518C76.3073 81.5582 75.1389 82.1379 74.0018 82.78C73.8049 82.8915 73.6437 83.2482 73.6347 83.4934C73.5452 86.0261 73.4512 88.5632 73.4378 91.1003C73.4064 99.6169 73.4064 108.133 73.4064 116.654C73.4064 117.488 73.5005 118.322 73.5586 119.365C74.6106 118.487 75.506 117.809 76.3073 117.033C76.549 116.802 76.6072 116.302 76.6072 115.923C76.6072 114.47 76.4998 113.011 76.5222 111.558C76.6296 104.696 75.6268 97.8378 76.6699 90.9621C77.1668 87.6982 77.2071 84.3674 77.4622 80.9518H77.4712ZM64.5607 127.075C65.5993 126.174 66.3871 125.546 67.1034 124.841C67.3362 124.614 67.5108 124.199 67.5018 123.873C67.3228 117.109 67.0765 110.35 66.9199 103.59C66.8214 99.336 66.8572 95.0777 66.8079 90.8194C66.79 89.4951 66.6871 88.1708 66.6199 86.7351C65.8141 87.1364 65.174 87.56 64.4712 87.7784C63.2401 88.1619 63.061 89.0002 63.1461 90.1149C63.2983 92.2017 63.3252 94.2929 63.4908 96.3752C63.6833 98.792 64.113 101.2 64.1757 103.621C64.3682 111.313 64.4398 119.004 64.5607 127.07V127.075ZM112.026 104.945C113.159 103.188 114.202 101.606 115.195 99.9959C115.325 99.7819 115.227 99.4207 115.222 99.1264C115.151 96.6606 114.985 94.1948 115.025 91.729C115.11 86.0484 115.325 80.3677 115.424 74.687C115.522 68.9752 115.549 63.2588 115.607 57.4355C114.909 57.4934 114.076 57.5648 113.414 57.6183C112.953 73.4163 112.492 89.0537 112.026 104.945ZM106.421 97.2982C106.466 97.2893 106.511 97.2804 106.556 97.2715C106.945 84.3183 107.339 71.3696 107.733 58.305C106.233 58.4789 105.065 58.6126 103.937 58.7419C104.008 60.4319 104.138 61.988 104.129 63.5487C104.102 69.0331 103.973 74.5221 103.991 80.0065C104.004 83.8501 104.205 87.6937 104.286 91.5373C104.299 92.2374 104.375 92.768 104.962 93.2986C105.423 93.7133 105.642 94.4401 105.857 95.0688C106.108 95.7911 106.233 96.5536 106.412 97.2982H106.421ZM59.9901 89.8608C59.9856 103.822 59.9767 117.693 59.9722 131.627C60.8944 130.682 61.8613 129.755 62.7343 128.751C63.0342 128.408 63.2401 127.851 63.2267 127.396C63.1282 123.775 62.8372 120.155 62.8506 116.534C62.882 108.833 62.403 101.16 61.9464 93.4814C61.8613 92.0724 61.7942 90.6589 61.7136 89.1473C61.1003 89.4015 60.5228 89.6423 59.9901 89.8652V89.8608ZM116.838 57.275C116.717 70.7454 116.597 84.1221 116.476 97.4989C116.57 97.5167 116.664 97.539 116.762 97.5569C117.622 95.4389 119.963 93.8872 119.068 91.087C118.978 90.815 119.027 90.4939 119.036 90.1952C119.135 86.6102 119.309 83.0208 119.323 79.4358C119.341 74.8788 119.162 70.3218 119.197 65.7647C119.22 62.8219 119.471 59.879 119.623 56.8291C118.611 56.9896 117.662 57.1412 116.843 57.2705L116.838 57.275ZM97.1279 99.4876C97.9784 98.7385 98.7126 98.1187 99.402 97.4543C99.5542 97.3072 99.599 96.9817 99.59 96.7453C99.5229 95.4032 99.4378 94.0611 99.3304 92.7234C99.017 88.7772 98.4798 84.8356 98.4172 80.8894C98.3008 73.7418 98.4664 66.5896 98.5112 59.335C97.7591 59.4554 96.9354 59.5312 96.1475 59.7407C95.9013 59.8076 95.5924 60.2446 95.5969 60.5077C95.6551 65.5463 95.673 70.5938 95.8745 75.6279C96.1789 83.1991 96.6131 90.7704 96.9981 98.3372C97.016 98.6538 97.0697 98.9703 97.1279 99.4787V99.4876ZM99.9213 59.1343C99.8855 65.4169 99.6751 71.5658 99.8586 77.7057C100.042 83.8323 100.624 89.9499 101.036 96.1568C101.376 95.9427 101.649 95.7688 101.904 95.6039C101.81 95.2739 101.73 94.9974 101.573 94.4624C102.177 94.6987 102.518 94.8325 103.127 95.0688C101.694 82.9316 102.965 70.9371 102.773 58.849C101.891 58.9337 100.973 59.0273 99.9168 59.1299L99.9213 59.1343ZM85.1799 76.6401C84.674 76.9031 84.3025 77.1484 83.8906 77.3044C82.9371 77.6611 82.673 78.3121 82.7088 79.3065C82.7715 81.1703 82.6909 83.0386 82.6775 84.9069C82.6282 92.0412 82.5924 99.1799 82.5163 106.314C82.4984 108.205 82.3462 110.091 82.2388 112.36C83.7653 111.036 85.0635 109.935 86.3214 108.793C86.4602 108.668 86.4244 108.303 86.4065 108.053C86.1692 105.262 85.8737 102.475 85.6768 99.6793C85.3455 94.9484 84.965 90.2175 84.8173 85.4776C84.7277 82.5793 85.0366 79.6721 85.1754 76.6401H85.1799ZM128.406 78.4727C129.444 76.8541 130.349 75.5521 131.132 74.1743C131.49 73.55 131.723 72.8054 131.813 72.092C132.542 66.2106 133.227 60.3249 133.917 54.4435C133.939 54.2384 133.858 54.0199 133.809 53.7034C132.95 53.9129 132.166 54.1938 131.36 54.2696C130.152 54.3856 130.022 55.0544 129.991 56.0978C129.879 60.1242 129.731 64.1551 129.453 68.1726C129.221 71.4989 128.786 74.8119 128.406 78.4727ZM125.098 83.6584C126.257 82.3163 127.3 81.0053 127.094 79.146C127.005 78.3434 127.193 77.5095 127.255 76.6891C127.775 69.7555 128.294 62.8219 128.809 55.8882C128.831 55.6118 128.773 55.3264 128.751 54.992C128.03 55.1525 127.385 55.2238 126.799 55.4513C126.503 55.5672 126.145 55.9462 126.118 56.236C125.975 57.9126 125.899 59.5936 125.845 61.2701C125.684 66.3132 125.55 71.3518 125.389 76.3948C125.313 78.816 125.196 81.2372 125.098 83.6584ZM44.5548 95.6663C42.3344 95.9784 42.227 96.0943 42.2673 98.0072C42.2673 98.1945 42.2718 98.3818 42.2538 98.5646C41.7704 103.264 42.039 107.951 42.3389 112.646C42.424 113.957 42.7776 114.92 44.0982 115.415C44.2504 108.851 44.3981 102.301 44.5503 95.6618L44.5548 95.6663ZM40.8974 96.7676C40.1812 97.0129 39.729 97.2492 39.259 97.3072C38.0279 97.4543 38.0145 98.1989 38.0235 99.2111C38.0638 103.278 37.9966 107.34 37.9742 111.406C37.9742 111.656 37.925 112.057 38.0548 112.138C38.9098 112.664 39.8096 113.118 40.8303 113.667C40.2931 107.902 39.8589 102.439 40.9019 96.7676H40.8974ZM36.6939 111.647C36.6223 107.081 36.5552 102.743 36.4835 98.2435C35.4181 98.6003 34.5228 98.8945 33.7976 99.1398C33.8468 100.402 33.9453 101.472 33.9184 102.537C33.8558 104.919 33.708 107.3 33.6409 109.681C33.6319 109.979 33.82 110.439 34.0572 110.559C34.8138 110.951 35.633 111.223 36.6939 111.647ZM133.021 70.8435C134.534 69.3676 135.264 67.7936 135.497 65.9476C135.855 63.0983 136.276 60.258 136.674 57.4132C136.871 56.0265 137.077 54.6397 137.296 53.1326C136.414 53.2931 135.747 53.3779 135.098 53.5473C134.91 53.5963 134.664 53.8505 134.637 54.0378C134.454 55.3933 134.279 56.7533 134.185 58.1177C134.051 60.0841 134.051 62.0638 133.872 64.0258C133.666 66.2419 133.326 68.449 133.021 70.8479V70.8435ZM32.4053 99.4965C31.2952 99.7997 30.458 99.987 29.6612 100.277C29.4463 100.357 29.2225 100.758 29.227 101.013C29.2315 102.988 29.2807 104.963 29.3434 106.938C29.406 108.914 29.9567 109.471 31.895 109.672C32.0607 106.372 32.2263 103.068 32.4053 99.4965ZM87.736 60.7351C87.7718 61.997 87.8345 63.0671 87.8211 64.1328C87.8076 65.136 87.6733 66.1438 87.6733 67.147C87.6733 68.7032 88.4299 69.5281 90.1802 69.9071C90.2071 66.7725 90.2339 63.6601 90.2608 60.4096C89.2625 60.5389 88.4612 60.6414 87.7315 60.7306L87.736 60.7351ZM140.985 52.3701C140.237 52.4772 139.638 52.5084 139.078 52.6733C138.85 52.7402 138.581 53.0791 138.55 53.3243C138.326 55.1748 138.156 57.0297 137.968 58.8846C137.802 60.5166 137.641 62.1486 137.48 63.7805C137.61 63.8073 137.74 63.8385 137.869 63.8652C139.248 60.2045 140.242 56.4278 140.985 52.3701ZM86.2364 67.8248C86.3751 65.4705 86.5049 63.2276 86.6437 60.9001C85.9006 60.9669 85.3455 61.0294 84.7904 61.065C84.0383 61.1096 83.7384 61.4574 83.819 62.2288C83.8951 62.969 83.8817 63.7226 83.8638 64.4717C83.8339 66.0471 84.6263 67.1663 86.2408 67.8292L86.2364 67.8248ZM27.6064 100.758C27.2035 100.852 26.823 100.99 26.4291 101.026C25.4219 101.12 25.2518 101.655 25.4308 102.555C25.6278 103.541 25.6994 104.548 25.8069 105.552C25.9949 107.317 26.0844 107.429 27.9019 107.866C27.8482 105.632 27.7945 103.403 27.7363 101.173C27.7363 101.07 27.6781 100.972 27.6109 100.763L27.6064 100.758ZM82.7849 61.3058C82.1089 61.3593 81.4419 61.3861 80.7883 61.4886C80.5914 61.5199 80.3228 61.7428 80.2735 61.9301C79.9423 63.1563 81.0704 65.2698 82.2298 65.7068C82.4133 64.271 82.5924 62.8308 82.7894 61.3058H82.7849ZM23.8058 101.837C23.5059 101.882 23.2865 101.9 23.0806 101.953C22.6509 102.065 22.2256 102.199 21.8182 102.315C22.1584 105.628 22.3017 105.846 24.3967 106.292C24.1998 104.812 24.0073 103.353 23.8103 101.837H23.8058ZM144.338 51.8663L144.15 51.5898C143.689 51.7013 143.205 51.7682 142.771 51.9421C142.467 52.0625 142.006 52.3122 141.983 52.5396C141.849 53.8728 141.827 55.2149 141.755 56.7845C142.691 55.0054 143.514 53.4358 144.342 51.8663H144.338ZM79.1499 64.1239C78.9888 63.2142 78.8589 62.483 78.7157 61.6804C77.5562 61.9345 76.5311 62.1575 75.5104 62.3849C75.5104 62.4696 75.5194 62.5499 75.5239 62.6346C76.6833 63.1117 77.8472 63.5888 79.1499 64.1239ZM20.417 104.29C20.4931 104.263 20.5648 104.236 20.6409 104.21C20.5782 103.719 20.52 103.233 20.4484 102.653C20.0365 102.76 19.7008 102.85 19.2352 102.97C19.6963 103.487 20.0589 103.889 20.417 104.29Z" fill="#FB4800"/>
</svg>
